<?xml version="1.0" encoding="UTF-8"?>
<svg xmlns="http://www.w3.org/2000/svg" version="1.1" width="2048px" height="2558px" style="shape-rendering:geometricPrecision; text-rendering:geometricPrecision; image-rendering:optimizeQuality; fill-rule:evenodd; clip-rule:evenodd" xmlns:xlink="http://www.w3.org/1999/xlink">
<g><path style="opacity:0.902" fill="#00a7fd" d="M 480.5,172.5 C 471.524,171.597 462.524,170.93 453.5,170.5C 475.758,148.682 498.091,126.849 520.5,105C 522.37,103.436 524.37,103.436 526.5,105C 525.552,105.483 524.552,105.649 523.5,105.5C 524.111,110.618 522.944,115.285 520,119.5C 506.231,136.762 493.065,154.428 480.5,172.5 Z"/></g>
<g><path style="opacity:0.804" fill="#00a1fd" d="M 1546.5,128.5 C 1542.5,128.5 1538.5,128.5 1534.5,128.5C 1529.75,123.902 1526.41,118.402 1524.5,112C 1524.83,111.167 1525.17,110.333 1525.5,109.5C 1532.84,115.514 1539.84,121.848 1546.5,128.5 Z"/></g>
<g><path style="opacity:0.535" fill="#00a1fd" d="M 1348.5,115.5 C 1348.17,115.5 1347.83,115.5 1347.5,115.5C 1347.37,114.624 1347.7,113.957 1348.5,113.5C 1349.77,114.257 1349.77,114.923 1348.5,115.5 Z"/></g>
<g><path style="opacity:0.888" fill="#00a6fd" d="M 621.5,182.5 C 613.582,181.458 605.582,180.791 597.5,180.5C 626.527,156.808 656.861,134.808 688.5,114.5C 690.946,115.427 691.779,117.094 691,119.5C 667.365,139.968 644.198,160.968 621.5,182.5 Z"/></g>
<g><path style="opacity:0.922" fill="#00a6fd" d="M 1347.5,115.5 C 1347.83,115.5 1348.17,115.5 1348.5,115.5C 1353.05,115.961 1357.39,117.461 1361.5,120C 1396.01,143.508 1429.68,168.174 1462.5,194C 1479.78,208.146 1494.11,224.646 1505.5,243.5C 1493.15,242.641 1480.81,241.641 1468.5,240.5C 1456.68,223.173 1443.52,206.84 1429,191.5C 1403.92,164.735 1376.75,140.568 1347.5,119C 1346.21,117.708 1346.21,116.542 1347.5,115.5 Z"/></g>
<g><path style="opacity:0.948" fill="#00a6fd" d="M 1534.5,128.5 C 1538.5,128.5 1542.5,128.5 1546.5,128.5C 1584.83,163.328 1621.33,199.995 1656,238.5C 1660.05,243.712 1663.89,249.045 1667.5,254.5C 1651.17,253.453 1634.84,252.453 1618.5,251.5C 1611.22,239.717 1603.72,228.05 1596,216.5C 1575.23,187.283 1554.73,157.95 1534.5,128.5 Z"/></g>
<g><path style="opacity:0.963" fill="#00abfc" d="M 453.5,170.5 C 462.524,170.93 471.524,171.597 480.5,172.5C 453.097,208.286 428.431,245.953 406.5,285.5C 390.525,284.146 374.525,283.146 358.5,282.5C 384.227,240.414 415.894,203.081 453.5,170.5 Z"/></g>
<g><path style="opacity:0.955" fill="#00abfc" d="M 597.5,180.5 C 605.582,180.791 613.582,181.458 621.5,182.5C 603.651,201.178 587.484,221.178 573,242.5C 562.437,258.96 554.603,276.627 549.5,295.5C 537.773,294.639 526.106,293.639 514.5,292.5C 524.067,259.186 541.4,230.686 566.5,207C 576.706,197.957 587.039,189.123 597.5,180.5 Z"/></g>
<g><path style="opacity:0.509" fill="#00a7fd" d="M 781.5,193.5 C 780.167,193.167 778.833,192.833 777.5,192.5C 784.247,177.595 785.58,177.928 781.5,193.5 Z"/></g>
<g><path style="opacity:0.814" fill="#00a7fd" d="M 1290.5,228.5 C 1286.16,228.261 1281.82,227.927 1277.5,227.5C 1272.17,215.192 1268.5,202.526 1266.5,189.5C 1274.26,202.695 1282.26,215.695 1290.5,228.5 Z"/></g>
<g><path style="opacity:0.923" fill="#00acfc" d="M 777.5,192.5 C 778.833,192.833 780.167,193.167 781.5,193.5C 768.6,235.985 747.933,273.985 719.5,307.5C 708.185,306.412 696.852,305.412 685.5,304.5C 703.832,287.335 721.332,269.335 738,250.5C 752.908,232.351 766.074,213.018 777.5,192.5 Z"/></g>
<g><path style="opacity:0.95" fill="#00acfc" d="M 1277.5,227.5 C 1281.82,227.927 1286.16,228.261 1290.5,228.5C 1304.13,247.642 1319.13,265.809 1335.5,283C 1355.65,298.576 1375.99,313.91 1396.5,329C 1413.56,338.528 1430.56,348.028 1447.5,357.5C 1422.83,355.928 1398.16,354.261 1373.5,352.5C 1353.85,340.068 1336.68,324.734 1322,306.5C 1308.16,287.504 1295.83,267.504 1285,246.5C 1282,240.341 1279.5,234.008 1277.5,227.5 Z"/></g>
<g><path style="opacity:0.968" fill="#00abfc" d="M 1468.5,240.5 C 1480.81,241.641 1493.15,242.641 1505.5,243.5C 1523.55,271.813 1534.38,302.813 1538,336.5C 1539.11,345.467 1539.61,354.467 1539.5,363.5C 1526.82,363.118 1514.15,362.451 1501.5,361.5C 1503.47,317.727 1492.47,277.394 1468.5,240.5 Z"/></g>
<g><path style="opacity:0.972" fill="#00abfc" d="M 1618.5,251.5 C 1634.84,252.453 1651.17,253.453 1667.5,254.5C 1693.89,292.291 1714.23,333.291 1728.5,377.5C 1710.55,375.858 1692.55,374.525 1674.5,373.5C 1661.78,329.978 1643.12,289.311 1618.5,251.5 Z"/></g>
<g><path style="opacity:0.975" fill="#00b2fb" d="M 358.5,282.5 C 374.525,283.146 390.525,284.146 406.5,285.5C 382.902,328.37 367.568,374.037 360.5,422.5C 342.076,421.684 323.743,420.351 305.5,418.5C 314.947,369.801 332.614,324.467 358.5,282.5 Z"/></g>
<g><path style="opacity:0.974" fill="#00b2fb" d="M 514.5,292.5 C 526.106,293.639 537.773,294.639 549.5,295.5C 540.99,322.768 540.823,350.101 549,377.5C 550.4,378.116 551.9,378.449 553.5,378.5C 560.799,376.9 567.799,374.4 574.5,371C 609.49,354.853 642.157,335.187 672.5,312C 677.494,310.475 681.828,307.975 685.5,304.5C 696.852,305.412 708.185,306.412 719.5,307.5C 712.532,316.579 705.199,325.413 697.5,334C 668.833,356 640.167,378 611.5,400C 597.663,412.338 583.997,424.838 570.5,437.5C 544.865,435.407 519.199,433.74 493.5,432.5C 496.289,424.009 498.456,415.342 500,406.5C 501.381,382.058 503.715,357.724 507,333.5C 508.64,319.658 511.14,305.991 514.5,292.5 Z"/></g>
<g><path style="opacity:0.978" fill="#00b1fb" d="M 1373.5,352.5 C 1398.16,354.261 1422.83,355.928 1447.5,357.5C 1461.9,365.365 1476.56,372.699 1491.5,379.5C 1493.11,379.363 1494.44,378.696 1495.5,377.5C 1497.82,372.176 1499.82,366.843 1501.5,361.5C 1514.15,362.451 1526.82,363.118 1539.5,363.5C 1540.52,387.256 1544.68,410.589 1552,433.5C 1562.95,460.756 1577.45,485.756 1595.5,508.5C 1571.18,506.701 1546.84,505.034 1522.5,503.5C 1509.03,482.183 1494.53,461.516 1479,441.5C 1446.82,407.894 1411.65,378.227 1373.5,352.5 Z"/></g>
<g><path style="opacity:0.982" fill="#00b2fb" d="M 1674.5,373.5 C 1692.55,374.525 1710.55,375.858 1728.5,377.5C 1744.44,423.112 1750.78,470.112 1747.5,518.5C 1727.12,517.687 1706.79,516.354 1686.5,514.5C 1692,466.688 1688,419.688 1674.5,373.5 Z"/></g>
<g><path style="opacity:0.984" fill="#00b8fa" d="M 305.5,418.5 C 323.743,420.351 342.076,421.684 360.5,422.5C 354.776,456.559 355.276,490.559 362,524.5C 363.777,531.68 366.611,538.347 370.5,544.5C 346.514,542.657 322.514,540.99 298.5,539.5C 294.362,498.819 296.695,458.485 305.5,418.5 Z"/></g>
<g><path style="opacity:0.979" fill="#00b8fa" d="M 493.5,432.5 C 519.199,433.74 544.865,435.407 570.5,437.5C 540.965,472.536 516.965,511.203 498.5,553.5C 469.2,551.121 439.867,549.121 410.5,547.5C 417.6,542.245 424.6,536.745 431.5,531C 458.054,501.931 478.721,469.097 493.5,432.5 Z"/></g>
<g><path style="opacity:0.988" fill="#00b8fa" d="M 1522.5,503.5 C 1546.84,505.034 1571.18,506.701 1595.5,508.5C 1605.97,521.136 1617.64,532.636 1630.5,543C 1638.44,548.885 1647.27,552.718 1657,554.5C 1669.39,552.116 1677.39,544.783 1681,532.5C 1683.17,526.469 1685,520.469 1686.5,514.5C 1706.79,516.354 1727.12,517.687 1747.5,518.5C 1745.61,553.808 1738.77,588.141 1727,621.5C 1724.72,627.045 1722.22,632.378 1719.5,637.5C 1670.77,634.734 1622.1,631.4 1573.5,627.5C 1562,583.836 1545,542.503 1522.5,503.5 Z"/></g>
<g><path style="opacity:0.455" fill="#00b5fb" d="M 1797.5,522.5 C 1796.5,522.5 1795.5,522.5 1794.5,522.5C 1793.03,518.634 1792.53,514.634 1793,510.5C 1794.61,514.485 1796.11,518.485 1797.5,522.5 Z"/></g>
<g><path style="opacity:0.927" fill="#00b9fa" d="M 1794.5,522.5 C 1795.5,522.5 1796.5,522.5 1797.5,522.5C 1813.62,561.993 1823.62,602.993 1827.5,645.5C 1818.5,644.881 1809.5,644.214 1800.5,643.5C 1803.3,602.911 1801.3,562.578 1794.5,522.5 Z"/></g>
<g><path style="opacity:0.773" fill="#00bbfa" d="M 250.5,536.5 C 248.283,535.631 245.95,535.298 243.5,535.5C 244.18,529.981 247.18,527.148 252.5,527C 251.568,530.085 250.901,533.252 250.5,536.5 Z"/></g>
<g><path style="opacity:0.919" fill="#00bdf9" d="M 243.5,535.5 C 245.95,535.298 248.283,535.631 250.5,536.5C 247.114,557.359 245.114,578.359 244.5,599.5C 240.71,599.992 240.044,599.159 242.5,597C 241.167,596.833 239.833,596.667 238.5,596.5C 234.382,598.059 230.048,598.725 225.5,598.5C 229.791,577.001 235.791,556.001 243.5,535.5 Z"/></g>
<g><path style="opacity:0.991" fill="#00bdf9" d="M 298.5,539.5 C 322.514,540.99 346.514,542.657 370.5,544.5C 377.475,553.435 386.475,556.268 397.5,553C 402.014,551.445 406.347,549.611 410.5,547.5C 439.867,549.121 469.2,551.121 498.5,553.5C 489.629,573.785 481.963,594.452 475.5,615.5C 473.801,615.66 472.134,615.494 470.5,615C 473.16,613.018 472.66,612.185 469,612.5C 466.245,613.405 463.412,614.072 460.5,614.5C 456.714,614.904 456.048,614.071 458.5,612C 457.167,611.833 455.833,611.667 454.5,611.5C 451.588,611.928 448.755,612.595 446,613.5C 444.833,613.167 443.667,612.833 442.5,612.5C 442.709,611.914 443.043,611.414 443.5,611C 442.333,610.833 441.167,610.667 440,610.5C 437.245,611.405 434.412,612.072 431.5,612.5C 427.714,612.904 427.048,612.071 429.5,610C 428.167,609.833 426.833,609.667 425.5,609.5C 422.588,609.928 419.755,610.595 417,611.5C 415.833,611.333 414.667,611.167 413.5,611C 413.957,610.586 414.291,610.086 414.5,609.5C 413.333,609.167 412.167,608.833 411,608.5C 408.245,609.405 405.412,610.072 402.5,610.5C 398.714,610.904 398.048,610.071 400.5,608C 396.41,607.519 392.41,608.019 388.5,609.5C 384.714,609.904 384.048,609.071 386.5,607C 385.167,606.833 383.833,606.667 382.5,606.5C 379.588,606.928 376.755,607.595 374,608.5C 372.833,608.167 371.667,607.833 370.5,607.5C 370.709,606.914 371.043,606.414 371.5,606C 370.333,605.833 369.167,605.667 368,605.5C 365.245,606.405 362.412,607.072 359.5,607.5C 355.714,607.904 355.048,607.071 357.5,605C 356.167,604.833 354.833,604.667 353.5,604.5C 350.588,604.928 347.755,605.595 345,606.5C 343.833,606.333 342.667,606.167 341.5,606C 341.957,605.586 342.291,605.086 342.5,604.5C 341.333,604.167 340.167,603.833 339,603.5C 336.245,604.405 333.412,605.072 330.5,605.5C 326.714,605.904 326.048,605.071 328.5,603C 327.167,602.833 325.833,602.667 324.5,602.5C 321.04,603.911 317.374,604.578 313.5,604.5C 305.334,583.69 300.334,562.023 298.5,539.5 Z"/></g>
<g><path style="opacity:0.954" fill="#00c0f9" d="M 244.5,599.5 C 243.928,619.306 244.928,638.973 247.5,658.5C 237.85,657.657 228.183,656.99 218.5,656.5C 219.373,636.974 221.706,617.641 225.5,598.5C 230.048,598.725 234.382,598.059 238.5,596.5C 239.833,596.667 241.167,596.833 242.5,597C 240.044,599.159 240.71,599.992 244.5,599.5 Z"/></g>
<g><path style="opacity:0.991" fill="#00bff9" d="M 475.5,615.5 C 470.858,634.729 466.858,654.063 463.5,673.5C 423.53,670.435 383.53,667.769 343.5,665.5C 330.602,646.703 320.602,626.37 313.5,604.5C 317.374,604.578 321.04,603.911 324.5,602.5C 325.833,602.667 327.167,602.833 328.5,603C 326.048,605.071 326.714,605.904 330.5,605.5C 333.412,605.072 336.245,604.405 339,603.5C 340.167,603.833 341.333,604.167 342.5,604.5C 342.291,605.086 341.957,605.586 341.5,606C 342.667,606.167 343.833,606.333 345,606.5C 347.755,605.595 350.588,604.928 353.5,604.5C 354.833,604.667 356.167,604.833 357.5,605C 355.048,607.071 355.714,607.904 359.5,607.5C 362.412,607.072 365.245,606.405 368,605.5C 369.167,605.667 370.333,605.833 371.5,606C 371.043,606.414 370.709,606.914 370.5,607.5C 371.667,607.833 372.833,608.167 374,608.5C 376.755,607.595 379.588,606.928 382.5,606.5C 383.833,606.667 385.167,606.833 386.5,607C 384.048,609.071 384.714,609.904 388.5,609.5C 392.41,608.019 396.41,607.519 400.5,608C 398.048,610.071 398.714,610.904 402.5,610.5C 405.412,610.072 408.245,609.405 411,608.5C 412.167,608.833 413.333,609.167 414.5,609.5C 414.291,610.086 413.957,610.586 413.5,611C 414.667,611.167 415.833,611.333 417,611.5C 419.755,610.595 422.588,609.928 425.5,609.5C 426.833,609.667 428.167,609.833 429.5,610C 427.048,612.071 427.714,612.904 431.5,612.5C 434.412,612.072 437.245,611.405 440,610.5C 441.167,610.667 442.333,610.833 443.5,611C 443.043,611.414 442.709,611.914 442.5,612.5C 443.667,612.833 444.833,613.167 446,613.5C 448.755,612.595 451.588,611.928 454.5,611.5C 455.833,611.667 457.167,611.833 458.5,612C 456.048,614.071 456.714,614.904 460.5,614.5C 463.412,614.072 466.245,613.405 469,612.5C 472.66,612.185 473.16,613.018 470.5,615C 472.134,615.494 473.801,615.66 475.5,615.5 Z"/></g>
<g><path style="opacity:0.989" fill="#00bcfa" d="M 1573.5,627.5 C 1622.1,631.4 1670.77,634.734 1719.5,637.5C 1717.59,641.922 1715.43,646.256 1713,650.5C 1701.75,665.341 1691.25,680.675 1681.5,696.5C 1677.78,696.368 1674.28,697.035 1671,698.5C 1669.83,698.333 1668.67,698.167 1667.5,698C 1667.96,697.586 1668.29,697.086 1668.5,696.5C 1667.33,696.167 1666.17,695.833 1665,695.5C 1662.25,696.405 1659.41,697.072 1656.5,697.5C 1652.71,697.904 1652.05,697.071 1654.5,695C 1653.17,694.833 1651.83,694.667 1650.5,694.5C 1646.59,695.981 1642.59,696.481 1638.5,696C 1640.95,693.929 1640.29,693.096 1636.5,693.5C 1633.5,694.167 1630.5,694.833 1627.5,695.5C 1623.71,695.904 1623.05,695.071 1625.5,693C 1624.33,692.833 1623.17,692.667 1622,692.5C 1619.25,693.405 1616.41,694.072 1613.5,694.5C 1609.71,694.904 1609.05,694.071 1611.5,692C 1610.17,691.833 1608.83,691.667 1607.5,691.5C 1604.59,691.928 1601.75,692.595 1599,693.5C 1597.83,693.333 1596.67,693.167 1595.5,693C 1595.96,692.586 1596.29,692.086 1596.5,691.5C 1595.33,691.167 1594.17,690.833 1593,690.5C 1590.41,690.945 1587.91,691.611 1585.5,692.5C 1583.3,670.483 1579.3,648.816 1573.5,627.5 Z"/></g>
<g><path style="opacity:0.962" fill="#00bdfa" d="M 1800.5,643.5 C 1809.5,644.214 1818.5,644.881 1827.5,645.5C 1829.16,665.955 1828.5,686.289 1825.5,706.5C 1821.78,706.368 1818.28,707.035 1815,708.5C 1811.34,708.815 1810.84,707.982 1813.5,706C 1812.17,705.833 1810.83,705.667 1809.5,705.5C 1806.5,706.167 1803.5,706.833 1800.5,707.5C 1796.71,707.904 1796.05,707.071 1798.5,705C 1795.18,704.068 1792.18,704.568 1789.5,706.5C 1794.58,685.711 1798.24,664.711 1800.5,643.5 Z"/></g>
<g><path style="opacity:0.968" fill="#00c4f8" d="M 218.5,656.5 C 228.183,656.99 237.85,657.657 247.5,658.5C 252.495,703.487 266.828,745.154 290.5,783.5C 273.161,782.595 255.828,781.595 238.5,780.5C 223.371,740.608 216.705,699.275 218.5,656.5 Z"/></g>
<g><path style="opacity:0.985" fill="#00c4f8" d="M 343.5,665.5 C 383.53,667.769 423.53,670.435 463.5,673.5C 460.842,693.747 459.175,714.081 458.5,734.5C 459.101,754.976 461.101,775.309 464.5,795.5C 444.131,794.593 423.798,793.259 403.5,791.5C 393.532,761.881 381.032,733.214 366,705.5C 358.223,692.274 350.723,678.941 343.5,665.5 Z"/></g>
<g><path style="opacity:0.986" fill="#00bff9" d="M 1681.5,696.5 C 1670.78,715.595 1661.45,735.261 1653.5,755.5C 1631.16,754.309 1608.82,752.976 1586.5,751.5C 1587.53,731.822 1587.2,712.155 1585.5,692.5C 1587.91,691.611 1590.41,690.945 1593,690.5C 1594.17,690.833 1595.33,691.167 1596.5,691.5C 1596.29,692.086 1595.96,692.586 1595.5,693C 1596.67,693.167 1597.83,693.333 1599,693.5C 1601.75,692.595 1604.59,691.928 1607.5,691.5C 1608.83,691.667 1610.17,691.833 1611.5,692C 1609.05,694.071 1609.71,694.904 1613.5,694.5C 1616.41,694.072 1619.25,693.405 1622,692.5C 1623.17,692.667 1624.33,692.833 1625.5,693C 1623.05,695.071 1623.71,695.904 1627.5,695.5C 1630.5,694.833 1633.5,694.167 1636.5,693.5C 1640.29,693.096 1640.95,693.929 1638.5,696C 1642.59,696.481 1646.59,695.981 1650.5,694.5C 1651.83,694.667 1653.17,694.833 1654.5,695C 1652.05,697.071 1652.71,697.904 1656.5,697.5C 1659.41,697.072 1662.25,696.405 1665,695.5C 1666.17,695.833 1667.33,696.167 1668.5,696.5C 1668.29,697.086 1667.96,697.586 1667.5,698C 1668.67,698.167 1669.83,698.333 1671,698.5C 1674.28,697.035 1677.78,696.368 1681.5,696.5 Z"/></g>
<g><path style="opacity:0.971" fill="#00c0f9" d="M 1825.5,706.5 C 1822.49,726.896 1817.82,746.896 1811.5,766.5C 1796.46,765.926 1781.46,764.926 1766.5,763.5C 1775.59,744.992 1783.26,725.992 1789.5,706.5C 1792.18,704.568 1795.18,704.068 1798.5,705C 1796.05,707.071 1796.71,707.904 1800.5,707.5C 1803.5,706.833 1806.5,706.167 1809.5,705.5C 1810.83,705.667 1812.17,705.833 1813.5,706C 1810.84,707.982 1811.34,708.815 1815,708.5C 1818.28,707.035 1821.78,706.368 1825.5,706.5 Z"/></g>
<g><path style="opacity:0.981" fill="#00c4f8" d="M 1586.5,751.5 C 1608.82,752.976 1631.16,754.309 1653.5,755.5C 1649.97,766.91 1646.14,778.243 1642,789.5C 1634.22,818.307 1626.39,846.974 1618.5,875.5C 1599.83,874.595 1581.16,873.595 1562.5,872.5C 1574.86,833.034 1582.86,792.701 1586.5,751.5 Z"/></g>
<g><path style="opacity:0.973" fill="#00c4f8" d="M 1766.5,763.5 C 1781.46,764.926 1796.46,765.926 1811.5,766.5C 1801.29,792.913 1788.46,817.913 1773,841.5C 1760.26,857.412 1745.76,871.412 1729.5,883.5C 1704.49,881.975 1679.49,880.309 1654.5,878.5C 1686.59,858.259 1714.93,833.426 1739.5,804C 1741.08,803.293 1742.58,802.46 1744,801.5C 1752.27,789.301 1759.77,776.634 1766.5,763.5 Z"/></g>
<g><path style="opacity:0.98" fill="#00cbf7" d="M 238.5,780.5 C 255.828,781.595 273.161,782.595 290.5,783.5C 316.484,820.984 348.818,851.817 387.5,876C 398.397,882.368 409.897,887.201 422,890.5C 427.706,890.106 429.706,887.106 428,881.5C 419.516,851.562 411.349,821.562 403.5,791.5C 423.798,793.259 444.131,794.593 464.5,795.5C 472.924,843.867 486.924,890.533 506.5,935.5C 461.833,932.167 417.167,928.833 372.5,925.5C 339.559,904.902 309.392,880.569 282,852.5C 273.95,842.785 266.284,832.785 259,822.5C 257.601,819.637 256.601,816.637 256,813.5C 249.12,803.075 243.287,792.075 238.5,780.5 Z"/></g>
<g><path style="opacity:0.985" fill="#00caf7" d="M 1562.5,872.5 C 1581.16,873.595 1599.83,874.595 1618.5,875.5C 1615.42,883.175 1617.59,888.508 1625,891.5C 1634.95,887.459 1644.79,883.126 1654.5,878.5C 1679.49,880.309 1704.49,881.975 1729.5,883.5C 1714.57,893.978 1699.57,904.478 1684.5,915C 1662.66,933.911 1643.5,955.077 1627,978.5C 1619.49,989.529 1611.99,1000.53 1604.5,1011.5C 1570.85,1008.95 1537.19,1006.61 1503.5,1004.5C 1528.59,962.99 1548.25,918.99 1562.5,872.5 Z"/></g>
<g><path style="opacity:0.885" fill="#00cdf7" d="M 644.5,944.5 C 638.155,944.347 631.822,944.014 625.5,943.5C 634.075,918.684 645.575,895.35 660,873.5C 656.703,886.747 653.37,900.08 650,913.5C 647.733,923.77 645.9,934.103 644.5,944.5 Z"/></g>
<g><path style="opacity:0.933" fill="#00cbf7" d="M 1432.5,999.5 C 1423.18,998.739 1413.84,998.072 1404.5,997.5C 1404.54,955.736 1397.87,915.07 1384.5,875.5C 1384.83,875.167 1385.17,874.833 1385.5,874.5C 1397.77,888.68 1407.27,904.68 1414,922.5C 1423.29,947.448 1429.46,973.115 1432.5,999.5 Z"/></g>
<g><path style="opacity:0.986" fill="#00d1f6" d="M 372.5,925.5 C 417.167,928.833 461.833,932.167 506.5,935.5C 524.821,979.089 549.154,1018.76 579.5,1054.5C 541.442,1052.31 503.442,1049.64 465.5,1046.5C 459.445,1039.42 453.612,1032.09 448,1024.5C 430.42,999.674 413.087,974.674 396,949.5C 388.634,940.968 380.801,932.968 372.5,925.5 Z"/></g>
<g><path style="opacity:0.966" fill="#00d1f5" d="M 625.5,943.5 C 631.822,944.014 638.155,944.347 644.5,944.5C 638.367,983.101 639.7,1021.43 648.5,1059.5C 635.754,1058.85 623.087,1057.85 610.5,1056.5C 608.203,1017.88 613.203,980.213 625.5,943.5 Z"/></g>
<g><path style="opacity:0.846" fill="#00cdf7" d="M 1277.5,988.5 C 1272.48,988.387 1267.48,988.053 1262.5,987.5C 1262.57,974.13 1262.4,960.797 1262,947.5C 1268.44,960.651 1273.61,974.318 1277.5,988.5 Z"/></g>
<g><path style="opacity:0.458" fill="#00cef7" d="M 783.5,954.5 C 782.5,954.5 781.5,954.5 780.5,954.5C 783.859,946.731 784.859,946.731 783.5,954.5 Z"/></g>
<g><path style="opacity:0.944" fill="#00d2f5" d="M 780.5,954.5 C 781.5,954.5 782.5,954.5 783.5,954.5C 782.492,970.154 782.325,985.821 783,1001.5C 785.376,1024.3 788.542,1046.96 792.5,1069.5C 781.506,1068.74 770.506,1068.08 759.5,1067.5C 758.412,1028.28 765.412,990.61 780.5,954.5 Z"/></g>
<g><path style="opacity:0.961" fill="#00d1f5" d="M 1262.5,987.5 C 1267.48,988.053 1272.48,988.387 1277.5,988.5C 1283.26,1008.57 1284.93,1028.9 1282.5,1049.5C 1283.9,1067.51 1283.56,1085.51 1281.5,1103.5C 1268.8,1102.69 1256.13,1101.69 1243.5,1100.5C 1249.6,1080.77 1254.77,1060.77 1259,1040.5C 1260.63,1022.86 1261.8,1005.19 1262.5,987.5 Z"/></g>
<g><path style="opacity:0.982" fill="#00d1f6" d="M 1404.5,997.5 C 1413.84,998.072 1423.18,998.739 1432.5,999.5C 1433.4,1013.15 1434.07,1026.82 1434.5,1040.5C 1433.8,1057.86 1432.97,1075.2 1432,1092.5C 1436.7,1089.31 1441.04,1085.64 1445,1081.5C 1466.46,1057.2 1485.96,1031.54 1503.5,1004.5C 1537.19,1006.61 1570.85,1008.95 1604.5,1011.5C 1578.54,1050.14 1549.21,1086.14 1516.5,1119.5C 1470.17,1116.46 1423.84,1113.46 1377.5,1110.5C 1395.14,1074.95 1404.14,1037.28 1404.5,997.5 Z"/></g>
<g><path style="opacity:0.986" fill="#00d7f4" d="M 465.5,1046.5 C 503.442,1049.64 541.442,1052.31 579.5,1054.5C 589.47,1066.64 600.637,1077.64 613,1087.5C 612.2,1077.2 611.367,1066.87 610.5,1056.5C 623.087,1057.85 635.754,1058.85 648.5,1059.5C 655.601,1093.36 669.434,1124.02 690,1151.5C 698.336,1161.33 706.836,1171 715.5,1180.5C 673.172,1177.45 630.839,1174.45 588.5,1171.5C 565.809,1155.19 544.642,1136.86 525,1116.5C 504.206,1093.88 484.373,1070.55 465.5,1046.5 Z"/></g>
<g><path style="opacity:0.971" fill="#00d7f4" d="M 759.5,1067.5 C 770.506,1068.08 781.506,1068.74 792.5,1069.5C 804.157,1111.49 820.49,1151.49 841.5,1189.5C 824.54,1187.93 807.54,1186.6 790.5,1185.5C 772.675,1148.2 762.342,1108.87 759.5,1067.5 Z"/></g>
<g><path style="opacity:0.971" fill="#00d7f4" d="M 1243.5,1100.5 C 1256.13,1101.69 1268.8,1102.69 1281.5,1103.5C 1273.76,1143.96 1259.1,1181.62 1237.5,1216.5C 1220.51,1215.26 1203.51,1214.26 1186.5,1213.5C 1210.52,1178.47 1229.52,1140.8 1243.5,1100.5 Z"/></g>
<g><path style="opacity:0.984" fill="#00d7f4" d="M 1377.5,1110.5 C 1423.84,1113.46 1470.17,1116.46 1516.5,1119.5C 1496.56,1140.61 1475.23,1160.11 1452.5,1178C 1436.89,1188.61 1421.55,1199.61 1406.5,1211C 1398.45,1216.69 1390.11,1221.86 1381.5,1226.5C 1347.49,1224.26 1313.49,1221.92 1279.5,1219.5C 1322.51,1192.48 1355.18,1156.14 1377.5,1110.5 Z"/></g>
<g><path style="opacity:0.981" fill="#00dbf3" d="M 588.5,1171.5 C 630.839,1174.45 673.172,1177.45 715.5,1180.5C 739.756,1202.63 766.422,1221.29 795.5,1236.5C 751.143,1233.81 706.81,1230.81 662.5,1227.5C 645.845,1217.36 629.845,1206.19 614.5,1194C 605.641,1186.64 596.974,1179.14 588.5,1171.5 Z"/></g>
<g><path style="opacity:0.972" fill="#00dbf3" d="M 790.5,1185.5 C 807.54,1186.6 824.54,1187.93 841.5,1189.5C 852.928,1208.01 865.595,1225.68 879.5,1242.5C 859.821,1241.31 840.155,1239.98 820.5,1238.5C 809.236,1221.65 799.236,1203.98 790.5,1185.5 Z"/></g>
<g><path style="opacity:0.98" fill="#00dbf3" d="M 1186.5,1213.5 C 1203.51,1214.26 1220.51,1215.26 1237.5,1216.5C 1231.9,1226.86 1225.9,1237.03 1219.5,1247C 1240.55,1240.31 1260.55,1231.14 1279.5,1219.5C 1313.49,1221.92 1347.49,1224.26 1381.5,1226.5C 1355.64,1243.27 1328.64,1258.27 1300.5,1271.5C 1249.16,1268.21 1197.83,1264.88 1146.5,1261.5C 1160.99,1246.35 1174.33,1230.35 1186.5,1213.5 Z"/></g>
<g><path style="opacity:0.983" fill="#00def3" d="M 662.5,1227.5 C 706.81,1230.81 751.143,1233.81 795.5,1236.5C 806.114,1241.47 816.781,1246.47 827.5,1251.5C 827.833,1251.33 828.167,1251.17 828.5,1251C 825.438,1247.03 822.771,1242.86 820.5,1238.5C 840.155,1239.98 859.821,1241.31 879.5,1242.5C 892.835,1258.34 908.168,1271.84 925.5,1283C 931.275,1286.44 937.275,1289.44 943.5,1292C 948.067,1294.63 949.567,1298.47 948,1303.5C 946.741,1306.36 945.241,1309.02 943.5,1311.5C 894.808,1308.48 846.141,1305.14 797.5,1301.5C 767.887,1286.36 738.22,1271.19 708.5,1256C 692.6,1247.23 677.266,1237.73 662.5,1227.5 Z"/></g>
<g><path style="opacity:0.985" fill="#00def3" d="M 1146.5,1261.5 C 1197.83,1264.88 1249.16,1268.21 1300.5,1271.5C 1279.45,1281.52 1258.79,1292.36 1238.5,1304C 1226.77,1311.57 1215.77,1320.07 1205.5,1329.5C 1173.82,1327.74 1142.15,1325.74 1110.5,1323.5C 1104.38,1317.28 1099.21,1310.28 1095,1302.5C 1093.71,1298.42 1094.87,1295.25 1098.5,1293C 1116.38,1285.24 1132.38,1274.74 1146.5,1261.5 Z"/></g>
<g><path style="opacity:0.974" fill="#00e1f2" d="M 797.5,1301.5 C 846.141,1305.14 894.808,1308.48 943.5,1311.5C 931.088,1329.73 914.421,1342.57 893.5,1350C 884.88,1353.32 876.046,1355.82 867,1357.5C 864.7,1357.51 862.534,1357.01 860.5,1356C 842.655,1333.97 821.655,1315.81 797.5,1301.5 Z"/></g>
<g><path style="opacity:0.167" fill="#00e1f2" d="M 733.5,1305.5 C 736.797,1305.33 737.131,1306 734.5,1307.5C 733.702,1307.04 733.369,1306.38 733.5,1305.5 Z"/></g>
<g><path style="opacity:0.958" fill="#00e1f2" d="M 1110.5,1323.5 C 1142.15,1325.74 1173.82,1327.74 1205.5,1329.5C 1197.67,1338.17 1190,1347 1182.5,1356C 1180.63,1356.98 1178.63,1357.48 1176.5,1357.5C 1155.08,1353.62 1135.75,1345.12 1118.5,1332C 1115.63,1329.3 1112.96,1326.46 1110.5,1323.5 Z"/></g>
<g><path style="opacity:0.97" fill="#00eaf0" d="M 815.5,1463.5 C 858.258,1460.91 893.425,1475.91 921,1508.5C 929.657,1519.14 937.324,1530.48 944,1542.5C 944.667,1544.17 944.667,1545.83 944,1547.5C 923.74,1532.36 901.24,1527.86 876.5,1534C 847.669,1539.02 823.836,1530.52 805,1508.5C 800.167,1501.5 795.333,1494.5 790.5,1487.5C 793.194,1483.45 795.361,1479.11 797,1474.5C 801.468,1467.85 807.635,1464.19 815.5,1463.5 Z"/></g>
<g><path style="opacity:0.785" fill="#00e7f0" d="M 1242.5,1467.5 C 1228.98,1467.06 1215.64,1466.06 1202.5,1464.5C 1212.47,1463.44 1222.47,1463.27 1232.5,1464C 1236.25,1464.3 1239.58,1465.47 1242.5,1467.5 Z"/></g>
<g><path style="opacity:0.973" fill="#00e9f0" d="M 1202.5,1464.5 C 1215.64,1466.06 1228.98,1467.06 1242.5,1467.5C 1244.73,1468.23 1246.57,1469.56 1248,1471.5C 1250.56,1476.96 1253.4,1482.29 1256.5,1487.5C 1249.06,1499.86 1240.06,1511.02 1229.5,1521C 1211.71,1533.23 1192.04,1537.56 1170.5,1534C 1145.79,1528.03 1123.29,1532.53 1103,1547.5C 1102.33,1545.83 1102.33,1544.17 1103,1542.5C 1118.83,1512 1142,1488.83 1172.5,1473C 1182.16,1468.92 1192.16,1466.09 1202.5,1464.5 Z"/></g>
<g><path style="opacity:0.979" fill="#fefffe" d="M 355.5,1753.5 C 445.834,1753.33 536.167,1753.5 626.5,1754C 630.002,1763.67 633.002,1773.51 635.5,1783.5C 542.469,1783.01 449.469,1783.51 356.5,1785C 328.377,1793.45 313.21,1812.28 311,1841.5C 310.333,1920.5 310.333,1999.5 311,2078.5C 312.868,2104.4 325.701,2122.57 349.5,2133C 353.739,2134.41 358.072,2135.41 362.5,2136C 443.499,2136.5 524.499,2136.67 605.5,2136.5C 605.5,2067.83 605.5,1999.17 605.5,1930.5C 615.5,1930.5 625.5,1930.5 635.5,1930.5C 635.5,2009.17 635.5,2087.83 635.5,2166.5C 542.166,2166.67 448.833,2166.5 355.5,2166C 321.991,2159.84 298.825,2141 286,2109.5C 283.441,2102.37 281.774,2095.04 281,2087.5C 280.018,2000.14 280.352,1912.81 282,1825.5C 291.536,1786.13 316.036,1762.13 355.5,1753.5 Z"/></g>
<g><path style="opacity:0.977" fill="#fefffe" d="M 762.5,1871.5 C 830.834,1871.33 899.167,1871.5 967.5,1872C 1003.47,1878.97 1027.3,1899.8 1039,1934.5C 1040.39,1939.76 1041.39,1945.09 1042,1950.5C 1042.5,1978.16 1042.67,2005.83 1042.5,2033.5C 934.167,2033.5 825.833,2033.5 717.5,2033.5C 717.149,2051.86 717.649,2070.2 719,2088.5C 725.814,2114.98 742.647,2130.81 769.5,2136C 853.499,2136.5 937.499,2136.67 1021.5,2136.5C 1019.04,2146.55 1016.37,2156.55 1013.5,2166.5C 929.833,2166.67 846.166,2166.5 762.5,2166C 719.858,2156.69 695.024,2130.53 688,2087.5C 687.333,2041.83 687.333,1996.17 688,1950.5C 695.208,1907.46 720.041,1881.13 762.5,1871.5 Z M 769.5,1901.5 C 833.168,1901.33 896.834,1901.5 960.5,1902C 984.141,1905.97 1000.31,1919.14 1009,1941.5C 1010.79,1947.37 1011.79,1953.37 1012,1959.5C 1012.5,1974.16 1012.67,1988.83 1012.5,2003.5C 914.167,2003.5 815.833,2003.5 717.5,2003.5C 717.152,1985.47 717.652,1967.47 719,1949.5C 725.99,1923.01 742.823,1907.01 769.5,1901.5 Z"/></g>
<g><path style="opacity:0.978" fill="#fefffe" d="M 1095.5,1871.5 C 1105.5,1871.5 1115.5,1871.5 1125.5,1871.5C 1125.33,1886.84 1125.5,1902.17 1126,1917.5C 1131.91,1892.59 1147.41,1877.43 1172.5,1872C 1243.5,1871.33 1314.5,1871.33 1385.5,1872C 1388.73,1881.41 1391.73,1890.91 1394.5,1900.5C 1322.5,1901.33 1250.5,1901.83 1178.5,1902C 1153.56,1907.6 1136.73,1922.44 1128,1946.5C 1126.97,1950.77 1126.3,1955.11 1126,1959.5C 1125.5,2028.5 1125.33,2097.5 1125.5,2166.5C 1115.5,2166.5 1105.5,2166.5 1095.5,2166.5C 1095.5,2068.17 1095.5,1969.83 1095.5,1871.5 Z"/></g>
<g><path style="opacity:0.974" fill="#fefffe" d="M 1485.5,1871.5 C 1553.83,1871.33 1622.17,1871.5 1690.5,1872C 1733.14,1881.31 1757.98,1907.47 1765,1950.5C 1765.67,1996.17 1765.67,2041.83 1765,2087.5C 1757.98,2130.53 1733.14,2156.69 1690.5,2166C 1622.17,2166.67 1553.83,2166.67 1485.5,2166C 1449.53,2159.03 1425.7,2138.2 1414,2103.5C 1412.61,2098.24 1411.61,2092.91 1411,2087.5C 1410.33,2041.83 1410.33,1996.17 1411,1950.5C 1418.21,1907.46 1443.04,1881.13 1485.5,1871.5 Z M 1492.5,1901.5 C 1556.17,1901.33 1619.83,1901.5 1683.5,1902C 1710.36,1907.2 1727.2,1923.03 1734,1949.5C 1734.33,1953.17 1734.67,1956.83 1735,1960.5C 1735.67,1999.5 1735.67,2038.5 1735,2077.5C 1733.59,2103.91 1720.75,2122.41 1696.5,2133C 1692.26,2134.41 1687.93,2135.41 1683.5,2136C 1619.83,2136.67 1556.17,2136.67 1492.5,2136C 1465.65,2130.81 1448.81,2114.98 1442,2088.5C 1440.89,2065.36 1440.39,2042.19 1440.5,2019C 1440.39,1995.81 1440.89,1972.64 1442,1949.5C 1448.98,1923.02 1465.81,1907.02 1492.5,1901.5 Z"/></g>
<g><path style="opacity:0.986" fill="#fefffe" d="M 282.5,2290.5 C 322.835,2290.33 363.168,2290.5 403.5,2291C 418,2294.83 427.167,2304 431,2318.5C 431.667,2357.83 431.667,2397.17 431,2436.5C 427.167,2451 418,2460.17 403.5,2464C 363.168,2464.5 322.835,2464.67 282.5,2464.5C 282.5,2406.5 282.5,2348.5 282.5,2290.5 Z M 307.5,2315.5 C 337.169,2315.33 366.835,2315.5 396.5,2316C 401.667,2317.17 404.833,2320.33 406,2325.5C 406.667,2360.17 406.667,2394.83 406,2429.5C 404.833,2434.67 401.667,2437.83 396.5,2439C 366.835,2439.5 337.169,2439.67 307.5,2439.5C 307.5,2398.17 307.5,2356.83 307.5,2315.5 Z"/></g>
<g><path style="opacity:0.987" fill="#fefffe" d="M 788.5,2290.5 C 796.833,2290.5 805.167,2290.5 813.5,2290.5C 813.5,2307.17 813.5,2323.83 813.5,2340.5C 845.502,2340.33 877.502,2340.5 909.5,2341C 924,2344.83 933.167,2354 937,2368.5C 937.5,2400.5 937.667,2432.5 937.5,2464.5C 929.167,2464.5 920.833,2464.5 912.5,2464.5C 912.667,2434.83 912.5,2405.16 912,2375.5C 910.833,2370.33 907.667,2367.17 902.5,2366C 872.835,2365.5 843.169,2365.33 813.5,2365.5C 813.5,2398.5 813.5,2431.5 813.5,2464.5C 805.167,2464.5 796.833,2464.5 788.5,2464.5C 788.5,2406.5 788.5,2348.5 788.5,2290.5 Z"/></g>
<g><path style="opacity:0.986" fill="#fefffe" d="M 962.5,2290.5 C 970.833,2290.5 979.167,2290.5 987.5,2290.5C 987.5,2307.17 987.5,2323.83 987.5,2340.5C 1019.5,2340.33 1051.5,2340.5 1083.5,2341C 1098,2344.83 1107.17,2354 1111,2368.5C 1111.67,2391.17 1111.67,2413.83 1111,2436.5C 1107.17,2451 1098,2460.17 1083.5,2464C 1043.17,2464.5 1002.83,2464.67 962.5,2464.5C 962.5,2406.5 962.5,2348.5 962.5,2290.5 Z M 987.5,2365.5 C 1018.23,2365.02 1048.9,2365.52 1079.5,2367C 1083.17,2368.67 1085.33,2371.5 1086,2375.5C 1086.67,2393.5 1086.67,2411.5 1086,2429.5C 1085.33,2433.5 1083.17,2436.33 1079.5,2438C 1048.9,2439.48 1018.23,2439.98 987.5,2439.5C 987.5,2414.83 987.5,2390.17 987.5,2365.5 Z"/></g>
<g><path style="opacity:0.986" fill="#fefffe" d="M 1738.5,2290.5 C 1746.83,2290.5 1755.17,2290.5 1763.5,2290.5C 1763.5,2348.5 1763.5,2406.5 1763.5,2464.5C 1723.17,2464.67 1682.83,2464.5 1642.5,2464C 1628,2460.17 1618.83,2451 1615,2436.5C 1614.33,2413.83 1614.33,2391.17 1615,2368.5C 1618.83,2354 1628,2344.83 1642.5,2341C 1674.5,2340.5 1706.5,2340.33 1738.5,2340.5C 1738.5,2323.83 1738.5,2307.17 1738.5,2290.5 Z M 1649.5,2365.5 C 1679.17,2365.5 1708.83,2365.5 1738.5,2365.5C 1738.5,2390.17 1738.5,2414.83 1738.5,2439.5C 1708.83,2439.67 1679.16,2439.5 1649.5,2439C 1644.33,2437.83 1641.17,2434.67 1640,2429.5C 1639.33,2411.5 1639.33,2393.5 1640,2375.5C 1641.35,2370.32 1644.52,2366.99 1649.5,2365.5 Z"/></g>
<g><path style="opacity:0.983" fill="#fefffe" d="M 460.5,2340.5 C 496.835,2340.33 533.168,2340.5 569.5,2341C 584,2344.83 593.167,2354 597,2368.5C 597.5,2400.5 597.667,2432.5 597.5,2464.5C 557.165,2464.67 516.832,2464.5 476.5,2464C 455.51,2456.53 446.343,2441.69 449,2419.5C 452.724,2404.11 462.224,2394.28 477.5,2390C 509.165,2389.5 540.832,2389.33 572.5,2389.5C 572.851,2383.74 572.351,2378.07 571,2372.5C 569.332,2368.83 566.499,2366.67 562.5,2366C 526.168,2365.5 489.835,2365.33 453.5,2365.5C 455.63,2357.11 457.964,2348.78 460.5,2340.5 Z M 486.5,2414.5 C 515.167,2414.5 543.833,2414.5 572.5,2414.5C 572.5,2422.83 572.5,2431.17 572.5,2439.5C 542.831,2439.67 513.165,2439.5 483.5,2439C 475.788,2436.08 472.955,2430.58 475,2422.5C 477.476,2417.69 481.31,2415.03 486.5,2414.5 Z"/></g>
<g><path style="opacity:0.976" fill="#fefffe" d="M 646.5,2340.5 C 684.5,2340.5 722.5,2340.5 760.5,2340.5C 762.423,2348.61 764.757,2356.61 767.5,2364.5C 729.171,2365.33 690.838,2365.83 652.5,2366C 643.643,2369.56 641.31,2375.73 645.5,2384.5C 647.952,2387.06 650.952,2388.56 654.5,2389C 682.833,2389.33 711.167,2389.67 739.5,2390C 762.167,2396.69 772,2411.86 769,2435.5C 764.825,2450.34 755.325,2459.84 740.5,2464C 701.829,2464.83 663.162,2464.67 624.5,2463.5C 621.757,2455.61 619.423,2447.61 617.5,2439.5C 656.501,2439.67 695.501,2439.5 734.5,2439C 742.23,2436.04 745.063,2430.54 743,2422.5C 741.437,2419.27 738.937,2417.1 735.5,2416C 705.534,2414.71 675.534,2414.05 645.5,2414C 622.454,2405.75 613.621,2389.58 619,2365.5C 624.246,2352.75 633.412,2344.42 646.5,2340.5 Z"/></g>
<g><path style="opacity:0.978" fill="#fefffe" d="M 1159.5,2340.5 C 1190.5,2340.33 1221.5,2340.5 1252.5,2341C 1266.77,2345.61 1275.94,2355.11 1280,2369.5C 1280.67,2391.5 1280.67,2413.5 1280,2435.5C 1275.94,2449.89 1266.77,2459.39 1252.5,2464C 1221.5,2464.67 1190.5,2464.67 1159.5,2464C 1145,2460.17 1135.83,2451 1132,2436.5C 1131.33,2413.83 1131.33,2391.17 1132,2368.5C 1136.02,2353.99 1145.18,2344.65 1159.5,2340.5 Z M 1166.5,2365.5 C 1192.84,2365.33 1219.17,2365.5 1245.5,2366C 1250.89,2367.93 1254.06,2371.76 1255,2377.5C 1255.67,2394.17 1255.67,2410.83 1255,2427.5C 1254.06,2433.24 1250.89,2437.07 1245.5,2439C 1219.17,2439.67 1192.83,2439.67 1166.5,2439C 1161.33,2437.83 1158.17,2434.67 1157,2429.5C 1156.33,2411.5 1156.33,2393.5 1157,2375.5C 1158.35,2370.32 1161.52,2366.99 1166.5,2365.5 Z"/></g>
<g><path style="opacity:0.983" fill="#fefffe" d="M 1308.5,2340.5 C 1344.83,2340.33 1381.17,2340.5 1417.5,2341C 1432,2344.83 1441.17,2354 1445,2368.5C 1445.5,2400.5 1445.67,2432.5 1445.5,2464.5C 1405.17,2464.67 1364.83,2464.5 1324.5,2464C 1303.51,2456.53 1294.34,2441.69 1297,2419.5C 1300.72,2404.11 1310.22,2394.28 1325.5,2390C 1357.16,2389.5 1388.83,2389.33 1420.5,2389.5C 1420.85,2383.74 1420.35,2378.07 1419,2372.5C 1417.33,2368.83 1414.5,2366.67 1410.5,2366C 1374.17,2365.5 1337.83,2365.33 1301.5,2365.5C 1303.63,2357.11 1305.96,2348.78 1308.5,2340.5 Z M 1334.5,2414.5 C 1363.17,2414.5 1391.83,2414.5 1420.5,2414.5C 1420.5,2422.83 1420.5,2431.17 1420.5,2439.5C 1390.83,2439.67 1361.16,2439.5 1331.5,2439C 1323.79,2436.08 1320.95,2430.58 1323,2422.5C 1325.48,2417.69 1329.31,2415.03 1334.5,2414.5 Z"/></g>
<g><path style="opacity:0.981" fill="#fefffe" d="M 1470.5,2340.5 C 1478.83,2340.5 1487.17,2340.5 1495.5,2340.5C 1495.33,2346.18 1495.5,2351.84 1496,2357.5C 1498.81,2349.36 1504.31,2343.86 1512.5,2341C 1539.17,2340.33 1565.83,2340.33 1592.5,2341C 1595.32,2348.95 1597.99,2356.95 1600.5,2365C 1572.83,2365.33 1545.17,2365.67 1517.5,2366C 1504.99,2369.51 1497.82,2377.68 1496,2390.5C 1495.5,2415.16 1495.33,2439.83 1495.5,2464.5C 1487.17,2464.5 1478.83,2464.5 1470.5,2464.5C 1470.5,2423.17 1470.5,2381.83 1470.5,2340.5 Z"/></g>
</svg>
